#!OML:ASF E:\Style4\Style4.ASF
:FULLY-SPECIFIED
:DEGREES
786
root 0.304731 16.8948 -0.490475 8.21457 -3.30549 3.91792
lowerback 8.24963 1.29235 -0.181351
upperback -0.563683 1.63454 -1.31959
thorax -5.18279 0.793304 -1.47649
lowerneck 3.46004 -3.54058 -7.18275
upperneck -0.660119 -4.95223 4.54952
head -0.496928 -2.50403 2.75696
rclavicle 4.22417e-015 3.97569e-016
rhumerus -90.0992 62.8141 -116.139
rradius 79.0276
rwrist 8.64497
rhand -18.3821 40.7794
rfingers 7.12502
rthumb 7.90157 10.947
lclavicle 4.22417e-015 3.97569e-016
lhumerus -39.4359 -3.0641 60.1208
lradius 58.4251
lwrist 43.4706
lhand -1.37283 22.1667
lfingers 7.12502
lthumb 24.2748 50.6499
rfemur -31.03 4.32238 12.6468
rtibia 53.3933
rfoot -27.9832 -14.6608
rtoes -16.603
lfemur -28.2864 -0.0383808 -24.5305
ltibia 50.4133
lfoot -29.0368 8.89347
ltoes -16.9841
787
root 0.305056 16.8967 -0.484948 8.21674 -3.33728 3.92578
lowerback 8.23621 1.30674 -0.198398
upperback -0.577075 1.65258 -1.30906
thorax -5.18961 0.802772 -1.45809
lowerneck 3.40118 -3.53826 -7.20888
upperneck -0.560808 -4.94773 4.54375
head -0.454891 -2.50214 2.75646
rclavicle 1.15295e-014 -1.07344e-014
rhumerus -90.6205 62.4521 -117.134
rradius 79.3218
rwrist 8.68545
rhand -18.1818 40.6845
rfingers 7.12502
rthumb 8.09484 10.8596
lclavicle 1.15295e-014 -1.07344e-014
lhumerus -39.4456 -3.10742 60.2915
lradius 58.3907
lwrist 43.5286
lhand -1.39689 21.9389
lfingers 7.12502
lthumb 24.2517 50.4251
rfemur -31.0084 4.3837 12.6118
rtibia 53.4155
rfoot -28.1586 -14.4198
rtoes -15.755
lfemur -28.2883 -0.010243 -24.5522
ltibia 50.4341
lfoot -29.0062 9.00216
ltoes -17.216
788
root 0.30592 16.8964 -0.481122 8.23082 -3.3583 3.96956
lowerback 8.19703 1.3139 -0.253854
upperback -0.585319 1.65725 -1.30337
thorax -5.17775 0.806757 -1.42062
lowerneck 3.45511 -3.53866 -7.16381
upperneck -0.605869 -4.95021 4.47496
head -0.481208 -2.50277 2.7273
rclavicle -6.01324e-015 -7.95139e-015
rhumerus -91.0831 62.1264 -118.125
rradius 79.5696
rwrist 8.73853
rhand -17.9489 40.5054
rfingers 7.12502
rthumb 8.31964 10.6892
lclavicle -6.01324e-015 -7.95139e-015
lhumerus -39.5111 -3.11775 60.434
lradius 58.4774
lwrist 43.6128
lhand -1.49206 21.9436
lfingers 7.12502
lthumb 24.1605 50.442
rfemur -31.0218 4.39088 12.5486
rtibia 53.4302
rfoot -28.1702 -14.4496
rtoes -15.7864
lfemur -28.3189 0.0132838 -24.6135
ltibia 50.4604
lfoot -28.9875 9.1223
ltoes -17.5355
789
root 0.306322 16.894 -0.478764 8.26718 -3.35863 3.93947
lowerback 8.14416 1.31704 -0.215213
upperback -0.594763 1.66613 -1.29569
thorax -5.15668 0.810325 -1.43409
lowerneck 3.51441 -3.55174 -7.08883
upperneck -0.663284 -4.96849 4.41092
head -0.511966 -2.51134 2.69471
rclavicle 2.04748e-014 -3.37934e-014
rhumerus -91.568 61.8185 -119.195
rradius 79.8174
rwrist 8.74014
rhand -17.7117 40.3803
rfingers 7.12502
rthumb 8.54854 10.5733
lclavicle 2.04748e-014 -3.37934e-014
lhumerus -39.5289 -3.13218 60.5359
lradius 58.5191
lwrist 43.6214
lhand -1.48662 22.0812
lfingers 7.12502
lthumb 24.1657 50.5789
rfemur -31.061 4.39736 12.5821
rtibia 53.4255
rfoot -28.1058 -14.5695
rtoes -16.1928
lfemur -28.3644 0.023383 -24.5823
ltibia 50.4974
lfoot -29.0288 9.10177
ltoes -17.3764
790
root 0.306398 16.8923 -0.474281 8.25434 -3.38682 3.88663
lowerback 8.13052 1.32722 -0.159497
upperback -0.591778 1.68613 -1.28031
thorax -5.14425 0.818976 -1.45139
lowerneck 3.47214 -3.54538 -7.08388
upperneck -0.576158 -4.95824 4.40536
head -0.477811 -2.50671 2.68917
rclavicle 1.64991e-014 -7.95139e-015
rhumerus -92.0948 61.5325 -120.311
rradius 80.061
rwrist 8.77805
rhand -17.6185 40.3045
rfingers 7.12502
rthumb 8.63848 10.5013
lclavicle 1.64991e-014 -7.95139e-015
lhumerus -39.557 -3.12972 60.6518
lradius 58.5372
lwrist 43.5674
lhand -1.42355 22.0497
lfingers 7.12502
lthumb 24.2262 50.5393
rfemur -31.0396 4.44687 12.6429
rtibia 53.4031
rfoot -28.0811 -14.6129
rtoes -16.2676
lfemur -28.3374 0.0753821 -24.5287
ltibia 50.534
lfoot -29.0881 9.08083
ltoes -17.419
791
root 0.307044 16.8959 -0.467021 8.22035 -3.43027 3.91596
lowerback 8.10007 1.33239 -0.209342
upperback -0.571115 1.68964 -1.2604
thorax -5.1074 0.822601 -1.40178
lowerneck 3.40002 -3.52683 -7.12592
upperneck -0.483268 -4.9319 4.3793
head -0.437042 -2.49349 2.6845
rclavicle 1.42628e-014 -8.34896e-015
rhumerus -92.5186 61.2658 -121.269
rradius 80.3286
rwrist 8.9086
rhand -17.3568 40.317
rfingers 7.12502
rthumb 8.89103 10.5243
lclavicle 1.42628e-014 -8.34896e-015
lhumerus -39.602 -3.12025 60.8094
lradius 58.597
lwrist 43.5356
lhand -1.43445 22.1984
lfingers 7.12502
lthumb 24.2157 50.6895
rfemur -30.9887 4.45712 12.6112
rtibia 53.3877
rfoot -28.1004 -14.5865
rtoes -16.3722
lfemur -28.301 0.0918341 -24.552
ltibia 50.5529
lfoot -29.0884 8.88045
ltoes -16.7062
792
root 0.308215 16.9002 -0.458846 8.20634 -3.43952 3.90778
lowerback 8.04055 1.3179 -0.195182
upperback -0.567245 1.67354 -1.23719
thorax -5.07034 0.814831 -1.38179
lowerneck 3.42659 -3.50476 -7.21463
upperneck -0.450829 -4.9079 4.41686
head -0.429862 -2.48228 2.71356
rclavicle -1.31695e-014 4.77083e-015
rhumerus -93.009 60.9667 -122.331
rradius 80.6022
rwrist 8.9994
rhand -16.9997 40.2478
rfingers 7.12502
rthumb 9.23563 10.4701
lclavicle -1.31695e-014 4.77083e-015
lhumerus -39.6917 -3.20024 60.9556
lradius 58.6851
lwrist 43.5897
lhand -1.2887 22.3583
lfingers 7.12502
lthumb 24.3555 50.8307
rfemur -30.9236 4.47659 12.6125
rtibia 53.3891
rfoot -28.1851 -14.5264
rtoes -16.0329
lfemur -28.2738 0.0611964 -24.5291
ltibia 50.5527
lfoot -29.157 8.70476
ltoes -16.1784
